<svg xmlns="http://www.w3.org/2000/svg" xmlns:xlink="http://www.w3.org/1999/xlink" viewBox="0 0 900 675">
  <!-- Compendia logo as a decorative background element, top-left, ~300 px wide.
       Scale factor: 300 / 380.81 = 0.7879.
       Gradients use gradientUnits="userSpaceOnUse" in the logo's local coordinate
       space (0..380.81), which is preserved inside the scaled <g>. -->
  <defs>
    <linearGradient id="ab-lg1" x1="50.71" y1="163.37" x2="377.3" y2="98.34" gradientUnits="userSpaceOnUse">
      <stop offset="0" stop-color="#b3b3b3"/>
      <stop offset=".45" stop-color="gray"/>
      <stop offset="1" stop-color="#666"/>
    </linearGradient>
    <linearGradient id="ab-lg2" x1="42.4" y1="163.61" x2="135.86" y2="161.79" gradientUnits="userSpaceOnUse">
      <stop offset="0" stop-color="#ccc"/>
      <stop offset=".42" stop-color="#a4a4a4"/>
      <stop offset=".79" stop-color="#898989"/>
      <stop offset="1" stop-color="gray"/>
    </linearGradient>
    <linearGradient id="ab-lg3" x1="105.63" y1="285.08" x2="430.17" y2="311.26" gradientUnits="userSpaceOnUse">
      <stop offset="0" stop-color="#b3b3b3"/>
      <stop offset="1" stop-color="#999"/>
    </linearGradient>
    <linearGradient id="ab-lg4" x1="175.91" y1="209.68" x2="419.6" y2="-175.14" gradientUnits="userSpaceOnUse">
      <stop offset="0" stop-color="#cce0f4"/>
      <stop offset=".06" stop-color="#c2dcf2"/>
      <stop offset=".16" stop-color="#a9d2ee"/>
      <stop offset=".29" stop-color="#7fc2e7"/>
      <stop offset=".44" stop-color="#46abdd"/>
      <stop offset=".53" stop-color="#1e9cd7"/>
      <stop offset=".75" stop-color="#0087c8"/>
    </linearGradient>
    <linearGradient id="ab-lg5" x1="294.55" y1="326.58" x2="375.39" y2="411.64" gradientUnits="userSpaceOnUse">
      <stop offset=".13" stop-color="#e6e6e6"/>
      <stop offset="1" stop-color="gray"/>
    </linearGradient>
  </defs>
  <g opacity="0.22" transform="scale(0.7879)">
    <g id="Back">
      <polygon fill="#f2f2f2" points="83.81 297.29 380.81 266.26 380.81 333.29 263.81 378.29 2.81 378.29 83.81 297.29"/>
      <polygon fill="#e6e6e6" points="2.81 378.29 2.81 .29 68.71 .29 83.81 297.29 2.81 378.29"/>
    </g>
    <g id="Mid">
      <polyline fill="url(#ab-lg1)" points="380.81 198.29 137.81 225.29 110.81 .29 47.81 .29 83.81 297.29 380.81 261.29 380.81 198.29"/>
      <polygon fill="url(#ab-lg2)" points="47.81 .29 26.38 .29 61.96 284.05 55.21 326.99 83.81 297.29 47.81 .29"/>
      <polygon fill="url(#ab-lg3)" points="380.81 261.29 83.81 297.29 55.21 326.99 380.81 291.41 380.81 261.29"/>
    </g>
    <g id="Fore">
      <polygon fill="url(#ab-lg4)" points="110.81 .29 137.81 225.29 380.81 198.29 380.81 .29 110.81 .29"/>
      <polygon fill="url(#ab-lg5)" points="380.81 333.29 263.81 378.29 380.81 378.29 380.81 333.29"/>
    </g>
  </g>
</svg>
