<?xml version="1.0" encoding="UTF-8"?>
<svg xmlns="http://www.w3.org/2000/svg" xmlns:xlink="http://www.w3.org/1999/xlink" viewBox="0 0 380.81 378.29">
  <defs>
    <style>
      .cls-1 {
        fill: url(#linear-gradient-2);
      }

      .cls-2 {
        fill: url(#linear-gradient-4);
      }

      .cls-3 {
        fill: url(#linear-gradient-3);
      }

      .cls-4 {
        fill: #f2f2f2;
      }

      .cls-5 {
        fill: url(#linear-gradient-5);
      }

      .cls-6 {
        fill: url(#linear-gradient);
      }

      .cls-7 {
        fill: #e6e6e6;
      }
    </style>
    <linearGradient id="linear-gradient" x1="-.39" y1="122.05" x2="377.01" y2="225.37" gradientUnits="userSpaceOnUse">
      <stop offset="0" stop-color="#a0a0a0"/>
      <stop offset=".45" stop-color="gray"/>
    </linearGradient>
    <linearGradient id="linear-gradient-2" x1="32.74" y1="163.67" x2="123.83" y2="163.37" gradientUnits="userSpaceOnUse">
      <stop offset="0" stop-color="#ccc"/>
      <stop offset=".07" stop-color="#bebebe"/>
      <stop offset=".33" stop-color="#929292"/>
      <stop offset=".53" stop-color="#777"/>
      <stop offset=".65" stop-color="#6e6e6e"/>
    </linearGradient>
    <linearGradient id="linear-gradient-3" x1="105.63" y1="285.08" x2="430.17" y2="311.26" gradientUnits="userSpaceOnUse">
      <stop offset="0" stop-color="#b3b3b3"/>
      <stop offset="1" stop-color="#999"/>
    </linearGradient>
    <linearGradient id="linear-gradient-4" x1="175.91" y1="209.68" x2="419.6" y2="-175.14" gradientUnits="userSpaceOnUse">
      <stop offset="0" stop-color="#cce0f4"/>
      <stop offset=".06" stop-color="#c2dcf2"/>
      <stop offset=".16" stop-color="#a9d2ee"/>
      <stop offset=".29" stop-color="#7fc2e7"/>
      <stop offset=".44" stop-color="#46abdd"/>
      <stop offset=".53" stop-color="#1e9cd7"/>
      <stop offset=".75" stop-color="#0087c8"/>
    </linearGradient>
    <linearGradient id="linear-gradient-5" x1="294.55" y1="326.58" x2="375.39" y2="411.64" gradientUnits="userSpaceOnUse">
      <stop offset=".13" stop-color="#e6e6e6"/>
      <stop offset=".82" stop-color="#737373"/>
    </linearGradient>
  </defs>
  <g id="Back">
    <polygon class="cls-4" points="83.81 297.29 380.81 266.26 380.81 333.29 263.81 378.29 2.81 378.29 83.81 297.29"/>
    <polygon class="cls-7" points="2.81 378.29 2.81 .29 68.71 .29 83.81 297.29 2.81 378.29"/>
  </g>
  <g id="Mid">
    <polyline class="cls-6" points="380.81 198.29 137.81 225.29 110.81 .29 47.81 .29 83.81 297.29 380.81 261.29 380.81 198.29"/>
    <polygon class="cls-1" points="47.81 .29 26.38 .29 61.96 284.05 55.21 326.99 83.81 297.29 47.81 .29"/>
    <polygon class="cls-3" points="380.81 261.29 83.81 297.29 55.21 326.99 380.81 291.41 380.81 261.29"/>
  </g>
  <g id="Fore">
    <polygon class="cls-2" points="110.81 .29 137.81 225.29 380.81 198.29 380.81 .29 110.81 .29"/>
    <polygon class="cls-5" points="380.81 333.29 263.81 378.29 380.81 378.29 380.81 333.29"/>
  </g>
</svg>